<svg xmlns="http://www.w3.org/2000/svg" width="68.342" height="82.211" viewBox="0 0 68.342 82.211"><g transform="translate(0)"><path d="M12.6,63.858c10.2-5.4,19.8-12.2,25.3-22.6,2.8-5.3,10.9-.6,8,4.7a50.653,50.653,0,0,1-11.4,13.8c13.6,1.6,30,1.2,32.3-14.2a158.767,158.767,0,0,0,1.4-20.7c.1-6-1.2-12.7,2-18,.9-1.6,3.6-2.3,4.9-.6,5.2,6.6,3.7,17.6,3.5,25.7s.2,18.2-4.3,25.4c-9,14.5-29.5,13.8-45.3,12a97.775,97.775,0,0,1,20.9,15.7c1.1,1.1-.3,3.1-1.7,2.2a127.115,127.115,0,0,0-34.6-15.7C10.3,70.558,9.4,65.558,12.6,63.858Z" transform="translate(-10.611 -5.274)" fill="#e72d2d"/></g></svg>