<svg xmlns="http://www.w3.org/2000/svg" width="24.39" height="23.619" viewBox="0 0 24.39 23.619"><g transform="translate(-11.805 -12.19)"><path d="M26.23,21.632a20.948,20.948,0,0,0,1-4.518,9,9,0,0,0-.267-1.306l-.07-.273c-.15-.6-.311-1.2-.471-1.8l-.067-.25a2,2,0,0,0-1.213-1.11,2.258,2.258,0,0,0-1.617-.069,2.011,2.011,0,0,0-1.425,1.831c.021.446.024.885.024,1.332v1.691a1.958,1.958,0,0,1-.224.813l-2.179,3.655-.961,1.6a1.316,1.316,0,0,0-.105.207c-.045.037-.093.07-.152.112-.187.132-.379.258-.572.383l-.788.5-2.791.04v5.186a.35.35,0,1,1-.7,0V24.488l-1.493.021a.367.367,0,0,0-.349.355v9.6a.346.346,0,0,0,.2.316l.01.007a.347.347,0,0,0,.14.03h.005l5.152-.077,1.118,0,1.043.675a2.412,2.412,0,0,0,1.31.4c.175-.015.353-.008.529-.015s.333-.014.492-.014H31.978a2.043,2.043,0,0,0,2.034-2.031,2.931,2.931,0,0,0-.257-1.568,1.908,1.908,0,0,0,.962-1.591,2.789,2.789,0,0,0-.313-1.624,1.965,1.965,0,0,0,1.224-2,2.263,2.263,0,0,0-.437-1.533,1.97,1.97,0,0,0,.982-1.479,2.249,2.249,0,0,0-.453-1.789,1.672,1.672,0,0,0-1.293-.546ZM14,31.153a.35.35,0,0,1,.35.35v.929a.35.35,0,1,1-.7,0V31.5A.35.35,0,0,1,14,31.153Z" fill="#e72d2d"/></g></svg>